<mxfile host="app.diagrams.net" modified="2023-09-04T19:13:53.235Z" agent="Mozilla/5.0 (Windows NT 10.0; Win64; x64) AppleWebKit/537.36 (KHTML, like Gecko) Chrome/116.0.0.0 Safari/537.36" etag="N1jMMg6SNc-DqEWLuf8T" version="21.6.6" type="github">
  <diagram name="PÃ¡gina-1" id="QSq1O1VRL6b8cfIFRSyM">
    <mxGraphModel dx="836" dy="488" grid="1" gridSize="10" guides="1" tooltips="1" connect="1" arrows="1" fold="1" page="1" pageScale="1" pageWidth="827" pageHeight="1169" math="0" shadow="0">
      <root>
        <mxCell id="0" />
        <mxCell id="1" parent="0" />
        <mxCell id="Eyq-u-LmepGB5kE9uW7m-17" value="" style="endArrow=classic;html=1;rounded=0;entryX=1;entryY=0.5;entryDx=0;entryDy=0;exitX=0.5;exitY=1;exitDx=0;exitDy=0;exitPerimeter=0;" edge="1" parent="1" source="Eyq-u-LmepGB5kE9uW7m-19" target="Eyq-u-LmepGB5kE9uW7m-9">
          <mxGeometry width="50" height="50" relative="1" as="geometry">
            <mxPoint x="500" y="306.35000000000014" as="sourcePoint" />
            <mxPoint x="470" y="210" as="targetPoint" />
            <Array as="points">
              <mxPoint x="500" y="385" />
            </Array>
          </mxGeometry>
        </mxCell>
        <mxCell id="Eyq-u-LmepGB5kE9uW7m-18" value="ObtenerData" style="edgeLabel;html=1;align=center;verticalAlign=middle;resizable=0;points=[];" vertex="1" connectable="0" parent="Eyq-u-LmepGB5kE9uW7m-17">
          <mxGeometry x="-0.0999" y="-1" relative="1" as="geometry">
            <mxPoint as="offset" />
          </mxGeometry>
        </mxCell>
        <mxCell id="Eyq-u-LmepGB5kE9uW7m-1" value="" style="image;points=[];aspect=fixed;html=1;align=center;shadow=0;dashed=0;image=img/lib/allied_telesis/computer_and_terminals/Personal_Computer.svg;" vertex="1" parent="1">
          <mxGeometry x="47.2" y="30" width="45.6" height="61.800000000000004" as="geometry" />
        </mxCell>
        <mxCell id="Eyq-u-LmepGB5kE9uW7m-2" value="PAC" style="text;html=1;strokeColor=none;fillColor=none;align=center;verticalAlign=middle;whiteSpace=wrap;rounded=0;" vertex="1" parent="1">
          <mxGeometry x="40.000000000000014" y="91.80000000000001" width="60" height="30" as="geometry" />
        </mxCell>
        <mxCell id="Eyq-u-LmepGB5kE9uW7m-3" value="" style="sketch=0;points=[[0,0,0],[0.25,0,0],[0.5,0,0],[0.75,0,0],[1,0,0],[0,1,0],[0.25,1,0],[0.5,1,0],[0.75,1,0],[1,1,0],[0,0.25,0],[0,0.5,0],[0,0.75,0],[1,0.25,0],[1,0.5,0],[1,0.75,0]];outlineConnect=0;fontColor=#232F3E;gradientColor=#FF4F8B;gradientDirection=north;fillColor=#BC1356;strokeColor=#ffffff;dashed=0;verticalLabelPosition=bottom;verticalAlign=top;align=center;html=1;fontSize=12;fontStyle=0;aspect=fixed;shape=mxgraph.aws4.resourceIcon;resIcon=mxgraph.aws4.api_gateway;" vertex="1" parent="1">
          <mxGeometry x="210" y="50" width="58" height="58" as="geometry" />
        </mxCell>
        <mxCell id="Eyq-u-LmepGB5kE9uW7m-4" value="" style="endArrow=classic;startArrow=classic;html=1;rounded=0;entryX=0;entryY=0.5;entryDx=0;entryDy=0;entryPerimeter=0;" edge="1" parent="1" target="Eyq-u-LmepGB5kE9uW7m-3">
          <mxGeometry width="50" height="50" relative="1" as="geometry">
            <mxPoint x="92.80000000000001" y="80" as="sourcePoint" />
            <mxPoint x="142.8" y="30" as="targetPoint" />
          </mxGeometry>
        </mxCell>
        <mxCell id="Eyq-u-LmepGB5kE9uW7m-5" value="" style="outlineConnect=0;dashed=0;verticalLabelPosition=bottom;verticalAlign=top;align=center;html=1;shape=mxgraph.aws3.mysql_db_instance;fillColor=#2E73B8;gradientColor=none;" vertex="1" parent="1">
          <mxGeometry x="208" y="190" width="60" height="64.5" as="geometry" />
        </mxCell>
        <mxCell id="Eyq-u-LmepGB5kE9uW7m-6" value="" style="endArrow=classic;html=1;rounded=0;entryX=0.5;entryY=0;entryDx=0;entryDy=0;entryPerimeter=0;" edge="1" parent="1" target="Eyq-u-LmepGB5kE9uW7m-5">
          <mxGeometry width="50" height="50" relative="1" as="geometry">
            <mxPoint x="240" y="108" as="sourcePoint" />
            <mxPoint x="290" y="58" as="targetPoint" />
          </mxGeometry>
        </mxCell>
        <mxCell id="Eyq-u-LmepGB5kE9uW7m-12" value="API InformaPagos" style="edgeLabel;html=1;align=center;verticalAlign=middle;resizable=0;points=[];" vertex="1" connectable="0" parent="Eyq-u-LmepGB5kE9uW7m-6">
          <mxGeometry x="-0.5437" y="-2" relative="1" as="geometry">
            <mxPoint as="offset" />
          </mxGeometry>
        </mxCell>
        <mxCell id="Eyq-u-LmepGB5kE9uW7m-7" value="Tabla" style="swimlane;fontStyle=0;childLayout=stackLayout;horizontal=1;startSize=30;horizontalStack=0;resizeParent=1;resizeParentMax=0;resizeLast=0;collapsible=1;marginBottom=0;whiteSpace=wrap;html=1;" vertex="1" parent="1">
          <mxGeometry x="168" y="310" width="140" height="120" as="geometry" />
        </mxCell>
        <mxCell id="Eyq-u-LmepGB5kE9uW7m-8" value="No. Cuenta" style="text;strokeColor=none;fillColor=none;align=left;verticalAlign=middle;spacingLeft=4;spacingRight=4;overflow=hidden;points=[[0,0.5],[1,0.5]];portConstraint=eastwest;rotatable=0;whiteSpace=wrap;html=1;" vertex="1" parent="Eyq-u-LmepGB5kE9uW7m-7">
          <mxGeometry y="30" width="140" height="30" as="geometry" />
        </mxCell>
        <mxCell id="Eyq-u-LmepGB5kE9uW7m-9" value="TransactID" style="text;strokeColor=none;fillColor=none;align=left;verticalAlign=middle;spacingLeft=4;spacingRight=4;overflow=hidden;points=[[0,0.5],[1,0.5]];portConstraint=eastwest;rotatable=0;whiteSpace=wrap;html=1;" vertex="1" parent="Eyq-u-LmepGB5kE9uW7m-7">
          <mxGeometry y="60" width="140" height="30" as="geometry" />
        </mxCell>
        <mxCell id="Eyq-u-LmepGB5kE9uW7m-10" value="Fecha" style="text;strokeColor=none;fillColor=none;align=left;verticalAlign=middle;spacingLeft=4;spacingRight=4;overflow=hidden;points=[[0,0.5],[1,0.5]];portConstraint=eastwest;rotatable=0;whiteSpace=wrap;html=1;" vertex="1" parent="Eyq-u-LmepGB5kE9uW7m-7">
          <mxGeometry y="90" width="140" height="30" as="geometry" />
        </mxCell>
        <mxCell id="Eyq-u-LmepGB5kE9uW7m-11" value="" style="endArrow=classic;html=1;rounded=0;entryX=0.5;entryY=0;entryDx=0;entryDy=0;" edge="1" parent="1" target="Eyq-u-LmepGB5kE9uW7m-7">
          <mxGeometry width="50" height="50" relative="1" as="geometry">
            <mxPoint x="240" y="254.5" as="sourcePoint" />
            <mxPoint x="290" y="204.5" as="targetPoint" />
          </mxGeometry>
        </mxCell>
        <mxCell id="Eyq-u-LmepGB5kE9uW7m-20" value="" style="sketch=0;points=[[0,0,0],[0.25,0,0],[0.5,0,0],[0.75,0,0],[1,0,0],[0,1,0],[0.25,1,0],[0.5,1,0],[0.75,1,0],[1,1,0],[0,0.25,0],[0,0.5,0],[0,0.75,0],[1,0.25,0],[1,0.5,0],[1,0.75,0]];outlineConnect=0;fontColor=#232F3E;gradientColor=#FF4F8B;gradientDirection=north;fillColor=#BC1356;strokeColor=#ffffff;dashed=0;verticalLabelPosition=bottom;verticalAlign=top;align=center;html=1;fontSize=12;fontStyle=0;aspect=fixed;shape=mxgraph.aws4.resourceIcon;resIcon=mxgraph.aws4.api_gateway;" vertex="1" parent="1">
          <mxGeometry x="396" y="24" width="58" height="58" as="geometry" />
        </mxCell>
        <mxCell id="Eyq-u-LmepGB5kE9uW7m-29" value="" style="sketch=0;points=[[0,0,0],[0.25,0,0],[0.5,0,0],[0.75,0,0],[1,0,0],[0,1,0],[0.25,1,0],[0.5,1,0],[0.75,1,0],[1,1,0],[0,0.25,0],[0,0.5,0],[0,0.75,0],[1,0.25,0],[1,0.5,0],[1,0.75,0]];outlineConnect=0;fontColor=#232F3E;gradientColor=#945DF2;gradientDirection=north;fillColor=#5A30B5;strokeColor=#ffffff;dashed=0;verticalLabelPosition=bottom;verticalAlign=top;align=center;html=1;fontSize=12;fontStyle=0;aspect=fixed;shape=mxgraph.aws4.resourceIcon;resIcon=mxgraph.aws4.api_gateway;" vertex="1" parent="1">
          <mxGeometry x="550" y="20" width="62" height="62" as="geometry" />
        </mxCell>
        <mxCell id="Eyq-u-LmepGB5kE9uW7m-34" value="" style="endArrow=classic;html=1;rounded=0;entryX=0.5;entryY=0;entryDx=0;entryDy=0;" edge="1" parent="1" source="Eyq-u-LmepGB5kE9uW7m-19">
          <mxGeometry width="50" height="50" relative="1" as="geometry">
            <mxPoint x="500" y="190" as="sourcePoint" />
            <mxPoint x="500" y="219.9999999999999" as="targetPoint" />
          </mxGeometry>
        </mxCell>
        <mxCell id="Eyq-u-LmepGB5kE9uW7m-35" value="" style="endArrow=classic;startArrow=classic;html=1;rounded=0;exitX=0.5;exitY=1;exitDx=0;exitDy=0;exitPerimeter=0;" edge="1" parent="1" source="Eyq-u-LmepGB5kE9uW7m-20" target="Eyq-u-LmepGB5kE9uW7m-19">
          <mxGeometry width="50" height="50" relative="1" as="geometry">
            <mxPoint x="428.25" y="171.8" as="sourcePoint" />
            <mxPoint x="478.25" y="121.8" as="targetPoint" />
            <Array as="points">
              <mxPoint x="425" y="240" />
            </Array>
          </mxGeometry>
        </mxCell>
        <mxCell id="Eyq-u-LmepGB5kE9uW7m-38" value="Validar Status" style="edgeLabel;html=1;align=center;verticalAlign=middle;resizable=0;points=[];" vertex="1" connectable="0" parent="Eyq-u-LmepGB5kE9uW7m-35">
          <mxGeometry x="-0.0084" y="-2" relative="1" as="geometry">
            <mxPoint y="-1" as="offset" />
          </mxGeometry>
        </mxCell>
        <mxCell id="Eyq-u-LmepGB5kE9uW7m-39" style="edgeStyle=orthogonalEdgeStyle;rounded=0;orthogonalLoop=1;jettySize=auto;html=1;entryX=0.5;entryY=1;entryDx=0;entryDy=0;entryPerimeter=0;" edge="1" parent="1" source="Eyq-u-LmepGB5kE9uW7m-19" target="Eyq-u-LmepGB5kE9uW7m-29">
          <mxGeometry relative="1" as="geometry">
            <Array as="points">
              <mxPoint x="581" y="240" />
            </Array>
          </mxGeometry>
        </mxCell>
        <mxCell id="Eyq-u-LmepGB5kE9uW7m-40" value="Desbloquear si aplica" style="edgeLabel;html=1;align=center;verticalAlign=middle;resizable=0;points=[];" vertex="1" connectable="0" parent="Eyq-u-LmepGB5kE9uW7m-39">
          <mxGeometry x="0.1422" y="-1" relative="1" as="geometry">
            <mxPoint as="offset" />
          </mxGeometry>
        </mxCell>
        <mxCell id="Eyq-u-LmepGB5kE9uW7m-42" style="edgeStyle=orthogonalEdgeStyle;rounded=0;orthogonalLoop=1;jettySize=auto;html=1;exitX=1;exitY=0.5;exitDx=0;exitDy=0;exitPerimeter=0;" edge="1" parent="1" source="Eyq-u-LmepGB5kE9uW7m-19" target="Eyq-u-LmepGB5kE9uW7m-41">
          <mxGeometry relative="1" as="geometry" />
        </mxCell>
        <mxCell id="Eyq-u-LmepGB5kE9uW7m-43" value="EnviarLogs" style="edgeLabel;html=1;align=center;verticalAlign=middle;resizable=0;points=[];" vertex="1" connectable="0" parent="Eyq-u-LmepGB5kE9uW7m-42">
          <mxGeometry x="0.2793" y="-1" relative="1" as="geometry">
            <mxPoint as="offset" />
          </mxGeometry>
        </mxCell>
        <mxCell id="Eyq-u-LmepGB5kE9uW7m-19" value="Cliente/Job" style="outlineConnect=0;dashed=0;verticalLabelPosition=bottom;verticalAlign=top;align=center;html=1;shape=mxgraph.aws3.ec2;fillColor=#F58534;gradientColor=none;" vertex="1" parent="1">
          <mxGeometry x="478.25" y="210" width="43.5" height="60" as="geometry" />
        </mxCell>
        <mxCell id="Eyq-u-LmepGB5kE9uW7m-41" value="" style="sketch=0;outlineConnect=0;fontColor=#232F3E;gradientColor=none;fillColor=#3F8624;strokeColor=none;dashed=0;verticalLabelPosition=bottom;verticalAlign=top;align=center;html=1;fontSize=12;fontStyle=0;aspect=fixed;pointerEvents=1;shape=mxgraph.aws4.bucket;" vertex="1" parent="1">
          <mxGeometry x="720" y="211.4" width="55" height="57.2" as="geometry" />
        </mxCell>
      </root>
    </mxGraphModel>
  </diagram>
</mxfile>
